<mxfile host="Electron" agent="Mozilla/5.0 (Macintosh; Intel Mac OS X 10_15_7) AppleWebKit/537.36 (KHTML, like Gecko) draw.io/24.7.17 Chrome/128.0.6613.36 Electron/32.0.1 Safari/537.36" version="24.7.17">
  <diagram name="PÃ¡gina-1" id="qA21MExTAAeZUoYZgemN">
    <mxGraphModel dx="687" dy="352" grid="1" gridSize="10" guides="1" tooltips="1" connect="1" arrows="1" fold="1" page="1" pageScale="1" pageWidth="827" pageHeight="1169" math="0" shadow="0">
      <root>
        <mxCell id="0" />
        <mxCell id="1" parent="0" />
        <mxCell id="XjvcZc0dYf2Z32y3Rc5G-5" value="AWS Cloud" style="points=[[0,0],[0.25,0],[0.5,0],[0.75,0],[1,0],[1,0.25],[1,0.5],[1,0.75],[1,1],[0.75,1],[0.5,1],[0.25,1],[0,1],[0,0.75],[0,0.5],[0,0.25]];outlineConnect=0;gradientColor=none;html=1;whiteSpace=wrap;fontSize=12;fontStyle=0;container=1;pointerEvents=0;collapsible=0;recursiveResize=0;shape=mxgraph.aws4.group;grIcon=mxgraph.aws4.group_aws_cloud;strokeColor=#232F3E;fillColor=none;verticalAlign=top;align=left;spacingLeft=30;fontColor=#232F3E;dashed=0;" vertex="1" parent="1">
          <mxGeometry x="190" y="10" width="610" height="480" as="geometry" />
        </mxCell>
        <mxCell id="XjvcZc0dYf2Z32y3Rc5G-20" value="VPC" style="points=[[0,0],[0.25,0],[0.5,0],[0.75,0],[1,0],[1,0.25],[1,0.5],[1,0.75],[1,1],[0.75,1],[0.5,1],[0.25,1],[0,1],[0,0.75],[0,0.5],[0,0.25]];outlineConnect=0;gradientColor=none;html=1;whiteSpace=wrap;fontSize=12;fontStyle=0;container=1;pointerEvents=0;collapsible=0;recursiveResize=0;shape=mxgraph.aws4.group;grIcon=mxgraph.aws4.group_vpc2;strokeColor=#8C4FFF;fillColor=none;verticalAlign=top;align=left;spacingLeft=30;fontColor=#AAB7B8;dashed=0;" vertex="1" parent="XjvcZc0dYf2Z32y3Rc5G-5">
          <mxGeometry x="300" y="40" width="270" height="350" as="geometry" />
        </mxCell>
        <mxCell id="XjvcZc0dYf2Z32y3Rc5G-18" value="Private subnet" style="points=[[0,0],[0.25,0],[0.5,0],[0.75,0],[1,0],[1,0.25],[1,0.5],[1,0.75],[1,1],[0.75,1],[0.5,1],[0.25,1],[0,1],[0,0.75],[0,0.5],[0,0.25]];outlineConnect=0;gradientColor=none;html=1;whiteSpace=wrap;fontSize=12;fontStyle=0;container=1;pointerEvents=0;collapsible=0;recursiveResize=0;shape=mxgraph.aws4.group;grIcon=mxgraph.aws4.group_security_group;grStroke=0;strokeColor=#00A4A6;fillColor=#E6F6F7;verticalAlign=top;align=left;spacingLeft=30;fontColor=#147EBA;dashed=0;" vertex="1" parent="XjvcZc0dYf2Z32y3Rc5G-20">
          <mxGeometry x="91" y="55" width="150" height="240" as="geometry" />
        </mxCell>
        <mxCell id="XjvcZc0dYf2Z32y3Rc5G-3" value="" style="sketch=0;points=[[0,0,0],[0.25,0,0],[0.5,0,0],[0.75,0,0],[1,0,0],[0,1,0],[0.25,1,0],[0.5,1,0],[0.75,1,0],[1,1,0],[0,0.25,0],[0,0.5,0],[0,0.75,0],[1,0.25,0],[1,0.5,0],[1,0.75,0]];outlineConnect=0;fontColor=#232F3E;fillColor=#ED7100;strokeColor=#ffffff;dashed=0;verticalLabelPosition=bottom;verticalAlign=top;align=center;html=1;fontSize=12;fontStyle=0;aspect=fixed;shape=mxgraph.aws4.resourceIcon;resIcon=mxgraph.aws4.lambda;" vertex="1" parent="XjvcZc0dYf2Z32y3Rc5G-20">
          <mxGeometry x="117" y="117" width="78" height="78" as="geometry" />
        </mxCell>
        <mxCell id="XjvcZc0dYf2Z32y3Rc5G-7" value="&lt;div style=&quot;line-height: 18px; white-space-collapse: preserve;&quot;&gt;&lt;font face=&quot;Helvetica&quot;&gt;thumbnails-generator&lt;/font&gt;&lt;/div&gt;" style="text;html=1;align=center;verticalAlign=middle;resizable=0;points=[];autosize=1;strokeColor=none;fillColor=none;" vertex="1" parent="XjvcZc0dYf2Z32y3Rc5G-20">
          <mxGeometry x="95" y="195" width="140" height="30" as="geometry" />
        </mxCell>
        <mxCell id="XjvcZc0dYf2Z32y3Rc5G-4" value="" style="outlineConnect=0;dashed=0;verticalLabelPosition=bottom;verticalAlign=top;align=center;html=1;shape=mxgraph.aws3.dynamo_db;fillColor=#2E73B8;gradientColor=none;" vertex="1" parent="XjvcZc0dYf2Z32y3Rc5G-5">
          <mxGeometry x="84" y="349" width="72" height="81" as="geometry" />
        </mxCell>
        <mxCell id="XjvcZc0dYf2Z32y3Rc5G-9" value="&lt;div style=&quot;line-height: 18px; white-space-collapse: preserve;&quot;&gt;&lt;p style=&quot;line-height: 18px;&quot;&gt;&lt;font face=&quot;Helvetica&quot;&gt;thumbails-generator-metadata&lt;/font&gt;&lt;/p&gt;&lt;/div&gt;" style="text;html=1;align=center;verticalAlign=middle;resizable=0;points=[];autosize=1;strokeColor=none;fillColor=none;" vertex="1" parent="XjvcZc0dYf2Z32y3Rc5G-5">
          <mxGeometry x="30" y="415" width="180" height="60" as="geometry" />
        </mxCell>
        <mxCell id="XjvcZc0dYf2Z32y3Rc5G-1" value="" style="sketch=0;points=[[0,0,0],[0.25,0,0],[0.5,0,0],[0.75,0,0],[1,0,0],[0,1,0],[0.25,1,0],[0.5,1,0],[0.75,1,0],[1,1,0],[0,0.25,0],[0,0.5,0],[0,0.75,0],[1,0.25,0],[1,0.5,0],[1,0.75,0]];outlineConnect=0;fontColor=#232F3E;fillColor=#7AA116;strokeColor=#ffffff;dashed=0;verticalLabelPosition=bottom;verticalAlign=top;align=center;html=1;fontSize=12;fontStyle=0;aspect=fixed;shape=mxgraph.aws4.resourceIcon;resIcon=mxgraph.aws4.s3;" vertex="1" parent="XjvcZc0dYf2Z32y3Rc5G-5">
          <mxGeometry x="81" y="50" width="78" height="78" as="geometry" />
        </mxCell>
        <mxCell id="XjvcZc0dYf2Z32y3Rc5G-6" value="&lt;p style=&quot;line-height: 18px; white-space-collapse: preserve;&quot;&gt;&lt;font face=&quot;Helvetica&quot;&gt;thumbnails-generator-&lt;br&gt;source-images-bucket&lt;/font&gt;&lt;/p&gt;" style="text;html=1;align=center;verticalAlign=middle;resizable=0;points=[];autosize=1;strokeColor=none;fillColor=none;" vertex="1" parent="XjvcZc0dYf2Z32y3Rc5G-5">
          <mxGeometry x="50" y="118" width="140" height="70" as="geometry" />
        </mxCell>
        <mxCell id="XjvcZc0dYf2Z32y3Rc5G-2" value="" style="sketch=0;points=[[0,0,0],[0.25,0,0],[0.5,0,0],[0.75,0,0],[1,0,0],[0,1,0],[0.25,1,0],[0.5,1,0],[0.75,1,0],[1,1,0],[0,0.25,0],[0,0.5,0],[0,0.75,0],[1,0.25,0],[1,0.5,0],[1,0.75,0]];outlineConnect=0;fontColor=#232F3E;fillColor=#7AA116;strokeColor=#ffffff;dashed=0;verticalLabelPosition=bottom;verticalAlign=top;align=center;html=1;fontSize=12;fontStyle=0;aspect=fixed;shape=mxgraph.aws4.resourceIcon;resIcon=mxgraph.aws4.s3;" vertex="1" parent="XjvcZc0dYf2Z32y3Rc5G-5">
          <mxGeometry x="76" y="192" width="78" height="78" as="geometry" />
        </mxCell>
        <mxCell id="XjvcZc0dYf2Z32y3Rc5G-8" value="&lt;p style=&quot;line-height: 18px; white-space-collapse: preserve;&quot;&gt;&lt;font face=&quot;Helvetica&quot;&gt;thumbnails-generator-&lt;br&gt;destination-images-bucket&lt;/font&gt;&lt;/p&gt;" style="text;html=1;align=center;verticalAlign=middle;resizable=0;points=[];autosize=1;strokeColor=none;fillColor=none;" vertex="1" parent="XjvcZc0dYf2Z32y3Rc5G-5">
          <mxGeometry x="40" y="260" width="160" height="70" as="geometry" />
        </mxCell>
        <mxCell id="XjvcZc0dYf2Z32y3Rc5G-24" value="VPC Endpoint" style="image;aspect=fixed;html=1;points=[];align=center;fontSize=12;image=img/lib/azure2/networking/Private_Endpoint.svg;" vertex="1" parent="XjvcZc0dYf2Z32y3Rc5G-5">
          <mxGeometry x="240" y="177.99999999999997" width="30.37" height="27.84" as="geometry" />
        </mxCell>
        <mxCell id="XjvcZc0dYf2Z32y3Rc5G-39" style="edgeStyle=orthogonalEdgeStyle;rounded=0;orthogonalLoop=1;jettySize=auto;html=1;entryX=1;entryY=0.75;entryDx=0;entryDy=0;entryPerimeter=0;" edge="1" parent="XjvcZc0dYf2Z32y3Rc5G-5" target="XjvcZc0dYf2Z32y3Rc5G-2">
          <mxGeometry relative="1" as="geometry">
            <mxPoint x="417" y="196" as="sourcePoint" />
            <Array as="points">
              <mxPoint x="417" y="196" />
              <mxPoint x="370" y="196" />
              <mxPoint x="370" y="251" />
            </Array>
          </mxGeometry>
        </mxCell>
        <mxCell id="XjvcZc0dYf2Z32y3Rc5G-40" style="edgeStyle=orthogonalEdgeStyle;rounded=0;orthogonalLoop=1;jettySize=auto;html=1;exitX=1;exitY=0.75;exitDx=0;exitDy=0;exitPerimeter=0;entryX=0;entryY=0.25;entryDx=0;entryDy=0;entryPerimeter=0;" edge="1" parent="XjvcZc0dYf2Z32y3Rc5G-5" source="XjvcZc0dYf2Z32y3Rc5G-1" target="XjvcZc0dYf2Z32y3Rc5G-3">
          <mxGeometry relative="1" as="geometry" />
        </mxCell>
        <mxCell id="XjvcZc0dYf2Z32y3Rc5G-41" style="edgeStyle=orthogonalEdgeStyle;rounded=0;orthogonalLoop=1;jettySize=auto;html=1;exitX=0;exitY=0.75;exitDx=0;exitDy=0;exitPerimeter=0;entryX=1;entryY=0.5;entryDx=0;entryDy=0;entryPerimeter=0;" edge="1" parent="XjvcZc0dYf2Z32y3Rc5G-5" source="XjvcZc0dYf2Z32y3Rc5G-3" target="XjvcZc0dYf2Z32y3Rc5G-4">
          <mxGeometry relative="1" as="geometry">
            <Array as="points">
              <mxPoint x="380" y="216" />
              <mxPoint x="380" y="270" />
              <mxPoint x="287" y="270" />
              <mxPoint x="287" y="390" />
            </Array>
          </mxGeometry>
        </mxCell>
        <mxCell id="XjvcZc0dYf2Z32y3Rc5G-42" value="" style="sketch=0;outlineConnect=0;fontColor=#232F3E;gradientColor=none;fillColor=#E7157B;strokeColor=none;dashed=0;verticalLabelPosition=bottom;verticalAlign=top;align=center;html=1;fontSize=12;fontStyle=0;aspect=fixed;pointerEvents=1;shape=mxgraph.aws4.event;" vertex="1" parent="XjvcZc0dYf2Z32y3Rc5G-5">
          <mxGeometry x="210" y="40" width="38" height="38" as="geometry" />
        </mxCell>
        <mxCell id="XjvcZc0dYf2Z32y3Rc5G-43" value="S3 PutObject Event" style="text;html=1;align=center;verticalAlign=middle;resizable=0;points=[];autosize=1;strokeColor=none;fillColor=none;" vertex="1" parent="XjvcZc0dYf2Z32y3Rc5G-5">
          <mxGeometry x="164" y="74" width="130" height="30" as="geometry" />
        </mxCell>
      </root>
    </mxGraphModel>
  </diagram>
</mxfile>
